<svg version="1.1" id="Layer_1" xmlns="http://www.w3.org/2000/svg" xmlns:xlink="http://www.w3.org/1999/xlink" x="0px" y="0px"
	 width="100%" viewBox="0 0 2324 730" enable-background="new 0 0 2324 730" xml:space="preserve">
<path fill="#FFFFFF" opacity="1.000000" stroke="none" 
	d="
M2224.000000,731.000000 
	C1482.727173,731.000000 741.954407,731.000000 1.090809,731.000000 
	C1.090809,487.747131 1.090809,244.494202 1.090809,1.120636 
	C775.666626,1.120636 1550.333374,1.120636 2324.995605,1.120636 
	C2324.995605,244.379181 2324.995605,487.689606 2324.993164,731.000000 
	C2291.493896,731.000000 2257.997070,731.000000 2224.000000,731.000000 
M832.482178,463.136017 
	C833.071228,473.077454 838.712952,479.877380 847.391602,485.380402 
	C844.554016,486.195068 842.658447,486.636780 840.833618,487.279480 
	C826.378479,492.370728 815.363892,501.342285 811.199524,516.497009 
	C804.495605,540.893677 816.370483,563.018127 841.697571,570.720886 
	C874.017639,580.550537 906.569580,579.159607 937.976440,566.452759 
	C958.614014,558.103088 969.977478,542.159058 970.567261,519.434326 
	C971.030762,501.572784 964.890564,486.766510 948.191772,478.720947 
	C940.732544,475.127045 932.134460,472.853241 923.875732,472.189362 
	C908.802612,470.977692 893.595093,471.492188 878.448303,471.104828 
	C874.314331,470.999115 870.108765,470.628662 866.091003,469.705505 
	C858.578003,467.979248 855.387390,463.180664 855.966736,455.452332 
	C856.548645,447.691437 865.005249,437.326538 872.279236,435.580780 
	C873.190979,435.361969 874.229736,435.743195 875.201660,435.692963 
	C886.780762,435.094299 898.625244,435.810730 909.882568,433.575592 
	C935.905212,428.408844 952.102356,407.051605 952.110229,380.481140 
	C952.113953,367.927490 948.249207,356.703339 940.987427,346.044342 
	C951.898254,344.708069 962.354248,343.427490 972.695435,342.160950 
	C972.695435,336.464752 972.695435,331.354187 972.695435,325.826569 
	C970.849365,325.826569 969.225952,325.826569 967.602539,325.826569 
	C950.776855,325.826569 933.951172,325.840759 917.125549,325.806122 
	C915.314453,325.802399 913.441040,325.762543 911.703064,325.320526 
	C898.081421,321.855927 884.350708,321.800720 870.587463,324.061096 
	C827.481384,331.140503 807.639221,380.710785 834.277649,415.466064 
	C839.080322,421.732147 845.931519,426.428040 851.904297,431.910706 
	C841.193481,438.648407 832.015564,447.387268 832.482178,463.136017 
M84.282425,429.193298 
	C98.032799,472.889893 128.218124,496.404114 173.336029,501.002563 
	C204.862885,504.215790 235.756241,500.187347 266.154022,491.518921 
	C269.610779,490.533203 270.416473,489.121063 270.403931,485.747528 
	C270.275848,451.256317 270.329041,416.764404 270.312958,382.272705 
	C270.312286,380.858154 270.127045,379.443665 270.028168,378.034546 
	C243.852463,378.034546 218.086990,378.034546 192.157593,378.034546 
	C192.157593,385.973999 192.157593,393.704590 192.157593,401.878174 
	C209.323318,401.878174 226.240509,401.878174 243.336639,401.878174 
	C243.336639,425.739166 243.336639,449.155853 243.336639,472.581329 
	C242.741165,472.859039 242.322128,473.150818 241.860580,473.255920 
	C217.751114,478.748413 193.442657,480.720947 169.090179,475.526794 
	C142.882309,469.936859 123.678223,455.064240 114.378540,429.547913 
	C104.025703,401.141937 103.433861,372.002563 113.001106,343.349487 
	C122.610870,314.569153 142.992050,296.909943 172.927872,290.843719 
	C193.936157,286.586517 214.680237,288.675140 235.130157,294.363190 
	C242.285294,296.353302 249.247299,299.037781 256.577240,301.499084 
	C260.005096,293.684906 263.360565,286.035797 266.705475,278.410736 
	C265.948639,277.896698 265.575256,277.531403 265.127472,277.354889 
	C233.896927,265.043518 201.646393,261.158813 168.612656,267.183258 
	C136.491440,273.041168 110.209221,288.529022 94.109489,317.883270 
	C74.785683,353.115875 74.707397,390.412689 84.282425,429.193298 
M1426.625977,460.499756 
	C1426.625977,473.120300 1426.625977,485.740845 1426.625977,498.596313 
	C1435.687378,498.596313 1444.268433,498.596313 1453.124268,498.596313 
	C1453.124268,421.695679 1453.124268,344.994110 1453.124268,268.135864 
	C1444.276733,268.135864 1435.553833,268.135864 1426.457520,268.135864 
	C1426.457520,300.860748 1426.457520,333.282684 1426.457520,365.794922 
	C1385.830811,365.794922 1345.581421,365.794922 1304.806152,365.794922 
	C1304.806152,333.056915 1304.806152,300.518951 1304.806152,268.020386 
	C1295.664307,268.020386 1287.050171,268.020386 1278.394409,268.020386 
	C1278.394409,345.037994 1278.394409,421.865906 1278.394409,498.555176 
	C1287.386719,498.555176 1295.983032,498.555176 1305.003174,498.555176 
	C1305.003174,462.375153 1305.003174,426.474182 1305.003174,390.414734 
	C1345.657959,390.414734 1385.879883,390.414734 1426.625977,390.414734 
	C1426.625977,413.604462 1426.625977,436.552094 1426.625977,460.499756 
M313.817017,393.252441 
	C311.487518,409.221527 311.520020,425.178833 315.128967,440.929718 
	C320.848511,465.891785 334.196716,485.408264 358.524902,495.068359 
	C389.072174,507.197968 419.510406,503.571503 449.351959,491.508148 
	C450.184570,491.171600 451.155823,489.890106 451.174072,489.030334 
	C451.321930,482.074463 451.257050,475.114075 451.257050,467.683899 
	C449.170593,468.389404 447.587280,468.820282 446.086456,469.448273 
	C430.348999,476.033661 413.801819,478.665253 396.900787,478.902435 
	C376.324310,479.191223 358.848145,472.780090 348.140839,453.805237 
	C341.785767,442.543152 339.817780,430.157806 339.635468,416.898193 
	C379.419250,416.898193 418.985107,416.898193 459.629150,416.898193 
	C458.712006,404.281647 458.792542,392.051422 456.791168,380.171967 
	C448.228027,329.343689 390.786713,304.988434 347.945587,333.816223 
	C327.216858,347.764557 317.740570,368.488159 313.817017,393.252441 
M1043.346313,328.798279 
	C1025.172485,337.293823 1013.321289,351.651337 1006.299927,370.001282 
	C997.686768,392.511078 996.680908,415.858307 1001.339905,439.288269 
	C1006.328064,464.373077 1019.411926,484.262970 1043.509521,494.405640 
	C1074.373657,507.396362 1105.319702,503.807343 1135.691528,491.572327 
	C1136.641968,491.189423 1137.789429,489.800385 1137.814209,488.853424 
	C1137.994995,481.949036 1137.911499,475.037750 1137.911499,467.691925 
	C1135.894409,468.329559 1134.447632,468.660828 1133.102295,469.231384 
	C1117.558716,475.823608 1101.204712,478.457611 1084.470581,478.882996 
	C1067.911987,479.303925 1052.651489,475.669586 1041.050659,462.754700 
	C1029.484497,449.878448 1026.739136,434.008423 1025.947021,416.958984 
	C1065.841431,416.958984 1105.397949,416.958984 1145.705811,416.958984 
	C1145.122314,405.499420 1145.410645,394.437286 1143.838135,383.646240 
	C1140.191406,358.619720 1128.369629,338.537445 1104.350830,328.198578 
	C1084.512085,319.659058 1064.106812,320.792480 1043.346313,328.798279 
M1524.486206,335.096375 
	C1522.913452,335.960754 1521.340576,336.825134 1519.434082,337.872925 
	C1522.085693,344.488464 1524.662109,350.916565 1527.335571,357.586884 
	C1529.140015,356.832855 1530.657349,356.232819 1532.147217,355.570892 
	C1548.433350,348.334930 1565.150146,343.114227 1583.302979,344.961823 
	C1594.119263,346.062714 1603.347412,350.163879 1608.467407,360.358734 
	C1613.955078,371.285553 1613.277588,383.097076 1612.950073,395.996368 
	C1602.799805,395.996368 1593.085449,395.270538 1583.523438,396.167908 
	C1569.489502,397.485046 1555.243286,398.713196 1541.658813,402.202728 
	C1512.134766,409.786804 1499.063354,427.355530 1500.027100,455.380554 
	C1500.777466,477.197876 1513.040894,493.664246 1534.208984,499.105438 
	C1543.082520,501.386353 1552.649170,501.912567 1561.867432,501.711426 
	C1580.344971,501.308350 1596.104980,494.244720 1608.121826,479.745361 
	C1609.756104,477.773468 1611.543823,475.928711 1613.880493,473.337616 
	C1615.895142,482.545441 1617.656616,490.596863 1619.390991,498.523651 
	C1626.087769,498.523651 1632.335083,498.523651 1638.896729,498.523651 
	C1638.896729,496.399017 1638.896729,494.591522 1638.896729,492.783997 
	C1638.896729,459.292389 1638.953369,425.800659 1638.855713,392.309326 
	C1638.831909,384.157715 1638.606934,375.982513 1637.943359,367.861572 
	C1636.119385,345.542816 1624.040894,331.018188 1602.476562,325.747894 
	C1575.676636,319.197998 1549.996582,323.549866 1524.486206,335.096375 
M2183.495850,481.974426 
	C2185.829834,479.330414 2188.164062,476.686371 2191.197266,473.250214 
	C2192.972900,481.468964 2194.382812,488.437927 2196.055176,495.343323 
	C2196.368652,496.637085 2197.680420,498.627167 2198.618896,498.677856 
	C2204.368408,498.988586 2210.142578,498.833374 2216.072754,498.833374 
	C2216.072754,497.171814 2216.072754,496.177551 2216.072754,495.183289 
	C2216.072510,457.353546 2216.113281,419.523712 2216.025879,381.694183 
	C2216.013428,376.380402 2215.619629,371.038513 2214.982910,365.760284 
	C2212.422363,344.540192 2200.609863,331.086029 2180.131592,325.780731 
	C2161.599121,320.979614 2143.091553,321.907715 2124.850098,326.913757 
	C2115.231689,329.553314 2105.972412,333.500763 2096.284668,336.952637 
	C2099.437256,344.673157 2102.034180,351.033142 2104.523438,357.128906 
	C2105.316406,357.184570 2105.505371,357.255829 2105.638428,357.198273 
	C2107.008789,356.605652 2108.365234,355.980835 2109.734863,355.386322 
	C2125.910156,348.365417 2142.464600,343.109894 2160.447266,344.953278 
	C2173.337646,346.274658 2183.256836,351.818237 2187.624023,364.820557 
	C2190.902832,374.583649 2190.556641,384.650818 2190.439697,396.015625 
	C2179.973877,396.015625 2169.991211,395.776031 2160.024414,396.069824 
	C2143.656982,396.552277 2127.465576,398.535583 2111.991699,404.217041 
	C2092.762939,411.277313 2079.491211,423.765320 2077.535889,445.203918 
	C2075.296387,469.757233 2084.224854,491.137970 2108.950439,498.336945 
	C2135.839600,506.165894 2161.802979,504.021149 2183.495850,481.974426 
M652.975098,413.478943 
	C652.624207,407.330658 652.575317,401.147247 651.865845,395.040619 
	C649.723755,376.603577 643.428772,359.891022 630.765442,345.920166 
	C615.925964,329.548523 596.969482,323.180206 575.434448,322.607788 
	C538.801208,321.634094 509.897491,339.720154 498.933563,375.570496 
	C492.657288,396.093018 492.245636,417.011536 496.446259,437.817108 
	C500.425995,457.528687 509.204041,474.916565 526.017883,487.119293 
	C546.158325,501.736328 568.739014,504.527161 592.567017,499.994629 
	C614.924438,495.741791 631.289368,483.123718 641.946350,463.140717 
	C650.045105,447.954559 652.559814,431.430695 652.975098,413.478943 
M2010.016968,465.500000 
	C2010.016968,476.573944 2010.016968,487.647888 2010.016968,498.629364 
	C2019.106323,498.629364 2027.391479,498.629364 2035.958496,498.629364 
	C2036.045532,497.153748 2036.187134,495.868652 2036.187500,494.583527 
	C2036.197754,458.585815 2036.244507,422.587952 2036.140625,386.590546 
	C2036.123901,380.777252 2035.789429,374.914642 2034.975952,369.163330 
	C2032.518188,351.783783 2025.274292,337.444977 2008.536743,329.511139 
	C1993.897339,322.571869 1978.358032,321.368591 1962.648926,323.343750 
	C1945.195435,325.538239 1930.143311,332.673401 1919.655151,347.586792 
	C1919.169678,348.276917 1918.221680,348.641785 1917.211792,349.353607 
	C1915.689575,341.261566 1914.255127,333.636871 1912.816650,325.989777 
	C1905.623291,325.989777 1898.824829,325.989777 1891.774414,325.989777 
	C1891.774414,383.568634 1891.774414,440.986084 1891.774414,498.451660 
	C1900.569946,498.451660 1909.103394,498.451660 1917.840576,498.451660 
	C1917.840576,468.908905 1917.672974,439.752625 1917.939575,410.600281 
	C1918.023071,401.478271 1918.605103,392.252106 1920.140869,383.275818 
	C1922.973145,366.721222 1930.933228,353.605682 1947.937134,348.094025 
	C1960.065186,344.162781 1972.486816,343.611847 1984.898682,346.543182 
	C1994.898926,348.904877 2002.792847,354.634430 2005.801147,364.618347 
	C2008.163574,372.458740 2009.668579,380.835449 2009.832764,389.008484 
	C2010.338013,414.163422 2010.016968,439.334930 2010.016968,465.500000 
M1811.307251,484.491760 
	C1811.307251,489.114258 1811.307251,493.736755 1811.307251,498.477905 
	C1820.353271,498.477905 1828.879517,498.477905 1837.550293,498.477905 
	C1837.616211,497.140076 1837.706665,496.159576 1837.706787,495.179077 
	C1837.713623,459.196167 1837.803711,423.212830 1837.631470,387.230743 
	C1837.598267,380.268127 1837.013672,373.229401 1835.851685,366.366608 
	C1833.000000,349.525391 1824.992920,336.281494 1808.723511,328.908905 
	C1794.572021,322.496033 1779.696777,321.550110 1764.717163,323.257935 
	C1747.097778,325.266724 1731.777588,332.273529 1721.102661,347.304840 
	C1720.594482,348.020325 1719.778564,348.517242 1718.593994,349.571594 
	C1717.050903,341.317108 1715.629883,333.715759 1714.207886,326.109314 
	C1706.988525,326.109314 1700.088135,326.109314 1693.217529,326.109314 
	C1693.217529,383.770233 1693.217529,441.145905 1693.217529,498.566650 
	C1701.928101,498.566650 1710.332642,498.566650 1719.060669,498.566650 
	C1719.060669,490.323029 1718.993896,482.352386 1719.072754,474.383209 
	C1719.343262,447.077026 1719.398071,419.764404 1720.101929,392.468903 
	C1720.373535,381.933929 1723.229004,371.691925 1729.316162,362.841095 
	C1741.809570,344.675568 1779.308716,338.304626 1797.235229,351.327850 
	C1807.047241,358.456116 1810.707031,369.102875 1810.863770,380.552246 
	C1811.333374,414.861816 1811.203247,449.179626 1811.307251,484.491760 
M725.319580,402.048859 
	C727.134521,394.154480 727.781799,385.745056 730.992249,378.466217 
	C739.253967,359.734863 753.057434,347.291748 774.586853,346.386078 
	C781.268982,346.104980 788.021240,347.491241 795.139221,348.151031 
	C796.276978,340.456055 797.433167,332.636505 798.583374,324.857025 
	C765.116638,316.881409 741.206055,329.488556 723.658875,357.510010 
	C722.637207,347.001923 721.615601,336.493835 720.603821,326.086853 
	C713.145935,326.086853 706.223572,326.086853 699.263062,326.086853 
	C699.263062,383.725067 699.263062,441.105652 699.263062,498.579987 
	C707.943542,498.579987 716.349548,498.579987 725.264648,498.579987 
	C725.264648,466.539337 725.264648,434.755798 725.319580,402.048859 
z"/>
<path fill="#020202" opacity="1.000000" stroke="none" 
	d="
M832.433411,462.711273 
	C832.015564,447.387268 841.193481,438.648407 851.904297,431.910706 
	C845.931519,426.428040 839.080322,421.732147 834.277649,415.466064 
	C807.639221,380.710785 827.481384,331.140503 870.587463,324.061096 
	C884.350708,321.800720 898.081421,321.855927 911.703064,325.320526 
	C913.441040,325.762543 915.314453,325.802399 917.125549,325.806122 
	C933.951172,325.840759 950.776855,325.826569 967.602539,325.826569 
	C969.225952,325.826569 970.849365,325.826569 972.695435,325.826569 
	C972.695435,331.354187 972.695435,336.464752 972.695435,342.160950 
	C962.354248,343.427490 951.898254,344.708069 940.987427,346.044342 
	C948.249207,356.703339 952.113953,367.927490 952.110229,380.481140 
	C952.102356,407.051605 935.905212,428.408844 909.882568,433.575592 
	C898.625244,435.810730 886.780762,435.094299 875.201660,435.692963 
	C874.229736,435.743195 873.190979,435.361969 872.279236,435.580780 
	C865.005249,437.326538 856.548645,447.691437 855.966736,455.452332 
	C855.387390,463.180664 858.578003,467.979248 866.091003,469.705505 
	C870.108765,470.628662 874.314331,470.999115 878.448303,471.104828 
	C893.595093,471.492188 908.802612,470.977692 923.875732,472.189362 
	C932.134460,472.853241 940.732544,475.127045 948.191772,478.720947 
	C964.890564,486.766510 971.030762,501.572784 970.567261,519.434326 
	C969.977478,542.159058 958.614014,558.103088 937.976440,566.452759 
	C906.569580,579.159607 874.017639,580.550537 841.697571,570.720886 
	C816.370483,563.018127 804.495605,540.893677 811.199524,516.497009 
	C815.363892,501.342285 826.378479,492.370728 840.833618,487.279480 
	C842.658447,486.636780 844.554016,486.195068 847.391602,485.380402 
	C838.712952,479.877380 833.071228,473.077454 832.433411,462.711273 
M836.958313,514.804871 
	C830.865112,535.220215 837.143860,548.353088 857.731689,553.463318 
	C880.225525,559.046814 902.957153,558.185791 924.706299,549.100403 
	C934.429810,545.038574 942.125427,538.245056 944.296021,527.426819 
	C946.190674,517.984192 946.756836,507.925751 937.738037,501.542664 
	C933.379211,498.457611 927.378906,496.496277 922.016724,496.241882 
	C903.763184,495.375885 885.445679,494.906525 867.186157,495.437927 
	C854.099121,495.818756 842.987915,501.112427 836.958313,514.804871 
M873.170166,343.394867 
	C866.697327,345.418213 860.933289,348.575012 856.858093,354.166504 
	C848.172485,366.083740 847.539612,379.460907 850.467224,393.211975 
	C852.613281,403.291962 858.806030,410.360931 868.376587,414.359039 
	C880.276306,419.330231 892.406067,418.974274 904.500122,415.451263 
	C915.292236,412.307495 921.875061,404.835571 924.587524,394.017242 
	C926.895203,384.813293 926.572144,375.604584 924.400818,366.374908 
	C921.481812,353.967072 913.663696,346.438934 901.573425,343.284973 
	C892.430786,340.899902 883.176453,341.006775 873.170166,343.394867 
z"/>
<path fill="#020202" opacity="1.000000" stroke="none" 
	d="
M84.172470,428.803772 
	C74.707397,390.412689 74.785683,353.115875 94.109489,317.883270 
	C110.209221,288.529022 136.491440,273.041168 168.612656,267.183258 
	C201.646393,261.158813 233.896927,265.043518 265.127472,277.354889 
	C265.575256,277.531403 265.948639,277.896698 266.705475,278.410736 
	C263.360565,286.035797 260.005096,293.684906 256.577240,301.499084 
	C249.247299,299.037781 242.285294,296.353302 235.130157,294.363190 
	C214.680237,288.675140 193.936157,286.586517 172.927872,290.843719 
	C142.992050,296.909943 122.610870,314.569153 113.001106,343.349487 
	C103.433861,372.002563 104.025703,401.141937 114.378540,429.547913 
	C123.678223,455.064240 142.882309,469.936859 169.090179,475.526794 
	C193.442657,480.720947 217.751114,478.748413 241.860580,473.255920 
	C242.322128,473.150818 242.741165,472.859039 243.336639,472.581329 
	C243.336639,449.155853 243.336639,425.739166 243.336639,401.878174 
	C226.240509,401.878174 209.323318,401.878174 192.157593,401.878174 
	C192.157593,393.704590 192.157593,385.973999 192.157593,378.034546 
	C218.086990,378.034546 243.852463,378.034546 270.028168,378.034546 
	C270.127045,379.443665 270.312286,380.858154 270.312958,382.272705 
	C270.329041,416.764404 270.275848,451.256317 270.403931,485.747528 
	C270.416473,489.121063 269.610779,490.533203 266.154022,491.518921 
	C235.756241,500.187347 204.862885,504.215790 173.336029,501.002563 
	C128.218124,496.404114 98.032799,472.889893 84.172470,428.803772 
z"/>
<path fill="#010101" opacity="1.000000" stroke="none" 
	d="
M1426.625977,459.999756 
	C1426.625977,436.552094 1426.625977,413.604462 1426.625977,390.414734 
	C1385.879883,390.414734 1345.657959,390.414734 1305.003174,390.414734 
	C1305.003174,426.474182 1305.003174,462.375153 1305.003174,498.555176 
	C1295.983032,498.555176 1287.386719,498.555176 1278.394409,498.555176 
	C1278.394409,421.865906 1278.394409,345.037994 1278.394409,268.020386 
	C1287.050171,268.020386 1295.664307,268.020386 1304.806152,268.020386 
	C1304.806152,300.518951 1304.806152,333.056915 1304.806152,365.794922 
	C1345.581421,365.794922 1385.830811,365.794922 1426.457520,365.794922 
	C1426.457520,333.282684 1426.457520,300.860748 1426.457520,268.135864 
	C1435.553833,268.135864 1444.276733,268.135864 1453.124268,268.135864 
	C1453.124268,344.994110 1453.124268,421.695679 1453.124268,498.596313 
	C1444.268433,498.596313 1435.687378,498.596313 1426.625977,498.596313 
	C1426.625977,485.740845 1426.625977,473.120300 1426.625977,459.999756 
z"/>
<path fill="#020202" opacity="1.000000" stroke="none" 
	d="
M313.861938,392.814514 
	C317.740570,368.488159 327.216858,347.764557 347.945587,333.816223 
	C390.786713,304.988434 448.228027,329.343689 456.791168,380.171967 
	C458.792542,392.051422 458.712006,404.281647 459.629150,416.898193 
	C418.985107,416.898193 379.419250,416.898193 339.635468,416.898193 
	C339.817780,430.157806 341.785767,442.543152 348.140839,453.805237 
	C358.848145,472.780090 376.324310,479.191223 396.900787,478.902435 
	C413.801819,478.665253 430.348999,476.033661 446.086456,469.448273 
	C447.587280,468.820282 449.170593,468.389404 451.257050,467.683899 
	C451.257050,475.114075 451.321930,482.074463 451.174072,489.030334 
	C451.155823,489.890106 450.184570,491.171600 449.351959,491.508148 
	C419.510406,503.571503 389.072174,507.197968 358.524902,495.068359 
	C334.196716,485.408264 320.848511,465.891785 315.128967,440.929718 
	C311.520020,425.178833 311.487518,409.221527 313.861938,392.814514 
M394.227356,344.937012 
	C358.408783,341.098663 342.004333,367.703186 340.492096,395.580963 
	C370.401642,395.580963 400.303772,395.580963 431.287598,395.580963 
	C430.064026,388.046234 429.391693,380.793213 427.650269,373.806671 
	C423.573212,357.449493 411.505890,347.023224 394.227356,344.937012 
z"/>
<path fill="#020202" opacity="1.000000" stroke="none" 
	d="
M1043.687500,328.628448 
	C1064.106812,320.792480 1084.512085,319.659058 1104.350830,328.198578 
	C1128.369629,338.537445 1140.191406,358.619720 1143.838135,383.646240 
	C1145.410645,394.437286 1145.122314,405.499420 1145.705811,416.958984 
	C1105.397949,416.958984 1065.841431,416.958984 1025.947021,416.958984 
	C1026.739136,434.008423 1029.484497,449.878448 1041.050659,462.754700 
	C1052.651489,475.669586 1067.911987,479.303925 1084.470581,478.882996 
	C1101.204712,478.457611 1117.558716,475.823608 1133.102295,469.231384 
	C1134.447632,468.660828 1135.894409,468.329559 1137.911499,467.691925 
	C1137.911499,475.037750 1137.994995,481.949036 1137.814209,488.853424 
	C1137.789429,489.800385 1136.641968,491.189423 1135.691528,491.572327 
	C1105.319702,503.807343 1074.373657,507.396362 1043.509521,494.405640 
	C1019.411926,484.262970 1006.328064,464.373077 1001.339905,439.288269 
	C996.680908,415.858307 997.686768,392.511078 1006.299927,370.001282 
	C1013.321289,351.651337 1025.172485,337.293823 1043.687500,328.628448 
M1111.228638,366.322754 
	C1104.264893,351.413330 1092.096558,345.264771 1076.112427,344.572144 
	C1043.665649,343.166290 1027.507324,370.249268 1027.346558,395.475433 
	C1057.195435,395.475433 1087.043213,395.475433 1116.871460,395.475433 
	C1117.313110,385.706665 1115.614136,376.636200 1111.228638,366.322754 
z"/>
<path fill="#030303" opacity="1.000000" stroke="none" 
	d="
M1524.846436,334.957642 
	C1549.996582,323.549866 1575.676636,319.197998 1602.476562,325.747894 
	C1624.040894,331.018188 1636.119385,345.542816 1637.943359,367.861572 
	C1638.606934,375.982513 1638.831909,384.157715 1638.855713,392.309326 
	C1638.953369,425.800659 1638.896729,459.292389 1638.896729,492.783997 
	C1638.896729,494.591522 1638.896729,496.399017 1638.896729,498.523651 
	C1632.335083,498.523651 1626.087769,498.523651 1619.390991,498.523651 
	C1617.656616,490.596863 1615.895142,482.545441 1613.880493,473.337616 
	C1611.543823,475.928711 1609.756104,477.773468 1608.121826,479.745361 
	C1596.104980,494.244720 1580.344971,501.308350 1561.867432,501.711426 
	C1552.649170,501.912567 1543.082520,501.386353 1534.208984,499.105438 
	C1513.040894,493.664246 1500.777466,477.197876 1500.027100,455.380554 
	C1499.063354,427.355530 1512.134766,409.786804 1541.658813,402.202728 
	C1555.243286,398.713196 1569.489502,397.485046 1583.523438,396.167908 
	C1593.085449,395.270538 1602.799805,395.996368 1612.950073,395.996368 
	C1613.277588,383.097076 1613.955078,371.285553 1608.467407,360.358734 
	C1603.347412,350.163879 1594.119263,346.062714 1583.302979,344.961823 
	C1565.150146,343.114227 1548.433350,348.334930 1532.147217,355.570892 
	C1530.657349,356.232819 1529.140015,356.832855 1527.335571,357.586884 
	C1524.662109,350.916565 1522.085693,344.488464 1519.434082,337.872925 
	C1521.340576,336.825134 1522.913452,335.960754 1524.846436,334.957642 
M1541.321167,476.354340 
	C1547.251587,477.691956 1553.130005,479.840210 1559.121460,480.223419 
	C1582.039185,481.689270 1601.500610,470.238190 1608.749023,451.591797 
	C1613.453857,439.488525 1612.645508,426.853912 1612.548950,413.356201 
	C1597.184326,414.393616 1582.196411,414.733429 1567.415649,416.661438 
	C1558.857056,417.777802 1550.170776,420.473480 1542.347290,424.165070 
	C1522.245483,433.650360 1522.949829,467.818359 1541.321167,476.354340 
z"/>
<path fill="#020202" opacity="1.000000" stroke="none" 
	d="
M2183.242676,482.226379 
	C2161.802979,504.021149 2135.839600,506.165894 2108.950439,498.336945 
	C2084.224854,491.137970 2075.296387,469.757233 2077.535889,445.203918 
	C2079.491211,423.765320 2092.762939,411.277313 2111.991699,404.217041 
	C2127.465576,398.535583 2143.656982,396.552277 2160.024414,396.069824 
	C2169.991211,395.776031 2179.973877,396.015625 2190.439697,396.015625 
	C2190.556641,384.650818 2190.902832,374.583649 2187.624023,364.820557 
	C2183.256836,351.818237 2173.337646,346.274658 2160.447266,344.953278 
	C2142.464600,343.109894 2125.910156,348.365417 2109.734863,355.386322 
	C2108.365234,355.980835 2107.008789,356.605652 2105.638428,357.198273 
	C2105.505371,357.255829 2105.316406,357.184570 2104.523438,357.128906 
	C2102.034180,351.033142 2099.437256,344.673157 2096.284668,336.952637 
	C2105.972412,333.500763 2115.231689,329.553314 2124.850098,326.913757 
	C2143.091553,321.907715 2161.599121,320.979614 2180.131592,325.780731 
	C2200.609863,331.086029 2212.422363,344.540192 2214.982910,365.760284 
	C2215.619629,371.038513 2216.013428,376.380402 2216.025879,381.694183 
	C2216.113281,419.523712 2216.072510,457.353546 2216.072754,495.183289 
	C2216.072754,496.177551 2216.072754,497.171814 2216.072754,498.833374 
	C2210.142578,498.833374 2204.368408,498.988586 2198.618896,498.677856 
	C2197.680420,498.627167 2196.368652,496.637085 2196.055176,495.343323 
	C2194.382812,488.437927 2192.972900,481.468964 2191.197266,473.250214 
	C2188.164062,476.686371 2185.829834,479.330414 2183.242676,482.226379 
M2184.419434,413.983002 
	C2175.111084,414.371979 2165.785156,414.521790 2156.498779,415.208313 
	C2143.890381,416.140350 2131.288574,417.468781 2119.941406,423.795746 
	C2107.426270,430.774139 2103.799072,442.058075 2105.046875,455.511719 
	C2106.105469,466.927032 2112.108887,474.696106 2123.031738,478.147644 
	C2127.235596,479.475922 2131.781494,480.027740 2136.209473,480.287689 
	C2159.199707,481.637268 2178.326172,470.654175 2185.926514,451.801208 
	C2190.842041,439.607819 2190.077637,426.836578 2189.766357,413.961731 
	C2188.020996,413.961731 2186.706299,413.961731 2184.419434,413.983002 
z"/>
<path fill="#020202" opacity="1.000000" stroke="none" 
	d="
M652.965210,413.971375 
	C652.559814,431.430695 650.045105,447.954559 641.946350,463.140717 
	C631.289368,483.123718 614.924438,495.741791 592.567017,499.994629 
	C568.739014,504.527161 546.158325,501.736328 526.017883,487.119293 
	C509.204041,474.916565 500.425995,457.528687 496.446259,437.817108 
	C492.245636,417.011536 492.657288,396.093018 498.933563,375.570496 
	C509.897491,339.720154 538.801208,321.634094 575.434448,322.607788 
	C596.969482,323.180206 615.925964,329.548523 630.765442,345.920166 
	C643.428772,359.891022 649.723755,376.603577 651.865845,395.040619 
	C652.575317,401.147247 652.624207,407.330658 652.965210,413.971375 
M534.958679,463.478180 
	C542.830872,473.135468 553.074524,478.280609 565.388794,479.546844 
	C591.851807,482.267853 613.051453,472.410278 621.406616,444.500427 
	C627.005493,425.797913 627.081665,406.801849 623.377380,387.741913 
	C621.115234,376.101990 616.737122,365.392365 607.929321,357.124542 
	C595.198425,345.174133 579.526367,343.345184 563.188110,345.538086 
	C546.392151,347.792480 534.470764,357.000519 527.878723,372.757782 
	C521.160583,388.816467 520.297668,405.669922 521.461792,422.732147 
	C522.448303,437.190765 525.772766,450.954803 534.958679,463.478180 
z"/>
<path fill="#020202" opacity="1.000000" stroke="none" 
	d="
M2010.016968,465.000000 
	C2010.016968,439.334930 2010.338013,414.163422 2009.832764,389.008484 
	C2009.668579,380.835449 2008.163574,372.458740 2005.801147,364.618347 
	C2002.792847,354.634430 1994.898926,348.904877 1984.898682,346.543182 
	C1972.486816,343.611847 1960.065186,344.162781 1947.937134,348.094025 
	C1930.933228,353.605682 1922.973145,366.721222 1920.140869,383.275818 
	C1918.605103,392.252106 1918.023071,401.478271 1917.939575,410.600281 
	C1917.672974,439.752625 1917.840576,468.908905 1917.840576,498.451660 
	C1909.103394,498.451660 1900.569946,498.451660 1891.774414,498.451660 
	C1891.774414,440.986084 1891.774414,383.568634 1891.774414,325.989777 
	C1898.824829,325.989777 1905.623291,325.989777 1912.816650,325.989777 
	C1914.255127,333.636871 1915.689575,341.261566 1917.211792,349.353607 
	C1918.221680,348.641785 1919.169678,348.276917 1919.655151,347.586792 
	C1930.143311,332.673401 1945.195435,325.538239 1962.648926,323.343750 
	C1978.358032,321.368591 1993.897339,322.571869 2008.536743,329.511139 
	C2025.274292,337.444977 2032.518188,351.783783 2034.975952,369.163330 
	C2035.789429,374.914642 2036.123901,380.777252 2036.140625,386.590546 
	C2036.244507,422.587952 2036.197754,458.585815 2036.187500,494.583527 
	C2036.187134,495.868652 2036.045532,497.153748 2035.958496,498.629364 
	C2027.391479,498.629364 2019.106323,498.629364 2010.016968,498.629364 
	C2010.016968,487.647888 2010.016968,476.573944 2010.016968,465.000000 
z"/>
<path fill="#030303" opacity="1.000000" stroke="none" 
	d="
M1811.307251,483.992981 
	C1811.203247,449.179626 1811.333374,414.861816 1810.863770,380.552246 
	C1810.707031,369.102875 1807.047241,358.456116 1797.235229,351.327850 
	C1779.308716,338.304626 1741.809570,344.675568 1729.316162,362.841095 
	C1723.229004,371.691925 1720.373535,381.933929 1720.101929,392.468903 
	C1719.398071,419.764404 1719.343262,447.077026 1719.072754,474.383209 
	C1718.993896,482.352386 1719.060669,490.323029 1719.060669,498.566650 
	C1710.332642,498.566650 1701.928101,498.566650 1693.217529,498.566650 
	C1693.217529,441.145905 1693.217529,383.770233 1693.217529,326.109314 
	C1700.088135,326.109314 1706.988525,326.109314 1714.207886,326.109314 
	C1715.629883,333.715759 1717.050903,341.317108 1718.593994,349.571594 
	C1719.778564,348.517242 1720.594482,348.020325 1721.102661,347.304840 
	C1731.777588,332.273529 1747.097778,325.266724 1764.717163,323.257935 
	C1779.696777,321.550110 1794.572021,322.496033 1808.723511,328.908905 
	C1824.992920,336.281494 1833.000000,349.525391 1835.851685,366.366608 
	C1837.013672,373.229401 1837.598267,380.268127 1837.631470,387.230743 
	C1837.803711,423.212830 1837.713623,459.196167 1837.706787,495.179077 
	C1837.706665,496.159576 1837.616211,497.140076 1837.550293,498.477905 
	C1828.879517,498.477905 1820.353271,498.477905 1811.307251,498.477905 
	C1811.307251,493.736755 1811.307251,489.114258 1811.307251,483.992981 
z"/>
<path fill="#010101" opacity="1.000000" stroke="none" 
	d="
M725.292114,402.510559 
	C725.264648,434.755798 725.264648,466.539337 725.264648,498.579987 
	C716.349548,498.579987 707.943542,498.579987 699.263062,498.579987 
	C699.263062,441.105652 699.263062,383.725067 699.263062,326.086853 
	C706.223572,326.086853 713.145935,326.086853 720.603821,326.086853 
	C721.615601,336.493835 722.637207,347.001923 723.658875,357.510010 
	C741.206055,329.488556 765.116638,316.881409 798.583374,324.857025 
	C797.433167,332.636505 796.276978,340.456055 795.139221,348.151031 
	C788.021240,347.491241 781.268982,346.104980 774.586853,346.386078 
	C753.057434,347.291748 739.253967,359.734863 730.992249,378.466217 
	C727.781799,385.745056 727.134521,394.154480 725.292114,402.510559 
z"/>
<path fill="#FEFEFE" opacity="1.000000" stroke="none" 
	d="
M837.053711,514.423828 
	C842.987915,501.112427 854.099121,495.818756 867.186157,495.437927 
	C885.445679,494.906525 903.763184,495.375885 922.016724,496.241882 
	C927.378906,496.496277 933.379211,498.457611 937.738037,501.542664 
	C946.756836,507.925751 946.190674,517.984192 944.296021,527.426819 
	C942.125427,538.245056 934.429810,545.038574 924.706299,549.100403 
	C902.957153,558.185791 880.225525,559.046814 857.731689,553.463318 
	C837.143860,548.353088 830.865112,535.220215 837.053711,514.423828 
z"/>
<path fill="#FDFDFD" opacity="1.000000" stroke="none" 
	d="
M873.566162,343.275635 
	C883.176453,341.006775 892.430786,340.899902 901.573425,343.284973 
	C913.663696,346.438934 921.481812,353.967072 924.400818,366.374908 
	C926.572144,375.604584 926.895203,384.813293 924.587524,394.017242 
	C921.875061,404.835571 915.292236,412.307495 904.500122,415.451263 
	C892.406067,418.974274 880.276306,419.330231 868.376587,414.359039 
	C858.806030,410.360931 852.613281,403.291962 850.467224,393.211975 
	C847.539612,379.460907 848.172485,366.083740 856.858093,354.166504 
	C860.933289,348.575012 866.697327,345.418213 873.566162,343.275635 
z"/>
<path fill="#FCFCFC" opacity="1.000000" stroke="none" 
	d="
M394.689941,344.960999 
	C411.505890,347.023224 423.573212,357.449493 427.650269,373.806671 
	C429.391693,380.793213 430.064026,388.046234 431.287598,395.580963 
	C400.303772,395.580963 370.401642,395.580963 340.492096,395.580963 
	C342.004333,367.703186 358.408783,341.098663 394.689941,344.960999 
z"/>
<path fill="#FDFDFD" opacity="1.000000" stroke="none" 
	d="
M1111.422363,366.648315 
	C1115.614136,376.636200 1117.313110,385.706665 1116.871460,395.475433 
	C1087.043213,395.475433 1057.195435,395.475433 1027.346558,395.475433 
	C1027.507324,370.249268 1043.665649,343.166290 1076.112427,344.572144 
	C1092.096558,345.264771 1104.264893,351.413330 1111.422363,366.648315 
z"/>
<path fill="#FDFDFD" opacity="1.000000" stroke="none" 
	d="
M1540.979858,476.203430 
	C1522.949829,467.818359 1522.245483,433.650360 1542.347290,424.165070 
	C1550.170776,420.473480 1558.857056,417.777802 1567.415649,416.661438 
	C1582.196411,414.733429 1597.184326,414.393616 1612.548950,413.356201 
	C1612.645508,426.853912 1613.453857,439.488525 1608.749023,451.591797 
	C1601.500610,470.238190 1582.039185,481.689270 1559.121460,480.223419 
	C1553.130005,479.840210 1547.251587,477.691956 1540.979858,476.203430 
z"/>
<path fill="#FDFDFD" opacity="1.000000" stroke="none" 
	d="
M2184.905273,413.972351 
	C2186.706299,413.961731 2188.020996,413.961731 2189.766357,413.961731 
	C2190.077637,426.836578 2190.842041,439.607819 2185.926514,451.801208 
	C2178.326172,470.654175 2159.199707,481.637268 2136.209473,480.287689 
	C2131.781494,480.027740 2127.235596,479.475922 2123.031738,478.147644 
	C2112.108887,474.696106 2106.105469,466.927032 2105.046875,455.511719 
	C2103.799072,442.058075 2107.426270,430.774139 2119.941406,423.795746 
	C2131.288574,417.468781 2143.890381,416.140350 2156.498779,415.208313 
	C2165.785156,414.521790 2175.111084,414.371979 2184.905273,413.972351 
z"/>
<path fill="#FEFEFE" opacity="1.000000" stroke="none" 
	d="
M534.717651,463.211914 
	C525.772766,450.954803 522.448303,437.190765 521.461792,422.732147 
	C520.297668,405.669922 521.160583,388.816467 527.878723,372.757782 
	C534.470764,357.000519 546.392151,347.792480 563.188110,345.538086 
	C579.526367,343.345184 595.198425,345.174133 607.929321,357.124542 
	C616.737122,365.392365 621.115234,376.101990 623.377380,387.741913 
	C627.081665,406.801849 627.005493,425.797913 621.406616,444.500427 
	C613.051453,472.410278 591.851807,482.267853 565.388794,479.546844 
	C553.074524,478.280609 542.830872,473.135468 534.717651,463.211914 
z"/>
</svg>